<ttFont>
<head>
    <!-- Most of this table will be recalculated by the compiler -->
    <tableVersion value="1.0"/>
    <fontRevision value="1.0"/>
    <checkSumAdjustment value="0xd57dda51"/>
    <magicNumber value="0x5f0f3cf5"/>
    <flags value="00000000 00000011"/>
    <unitsPerEm value="1000"/>
    <created value="Tue Jun 27 17:54:11 2023"/>
    <modified value="Tue Jun 27 17:54:11 2023"/>
    <xMin value="0"/>
    <yMin value="-20"/>
    <xMax value="327"/>
    <yMax value="620"/>
    <macStyle value="00000000 00000000"/>
    <lowestRecPPEM value="3"/>
    <fontDirectionHint value="2"/>
    <indexToLocFormat value="0"/>
    <glyphDataFormat value="1"/>
  </head>
    <TTGlyph name="DC_0030_00" xMin="0" yMin="0" xMax="0" yMax="0">
      <varComponent glyphName="zero_00" flags="0x6000">
        <location>
          <axis tag="V000" value="0.33"/>
          <axis tag="V001" value="0.45"/>
        </location>
      </varComponent>
    </TTGlyph>
    <TTGlyph name="DC_0031_00" xMin="0" yMin="0" xMax="0" yMax="0">
      <varComponent glyphName="one_00" flags="0x6008">
        <location>
          <axis tag="V000" value="0.1"/>
          <axis tag="V001" value="0.441"/>
        </location>
      </varComponent>
    </TTGlyph>
    <TTGlyph name="DC_0032_00" xMin="0" yMin="0" xMax="0" yMax="0">
      <varComponent glyphName="two_00" flags="0x6008" translateX="18.0">
        <location>
          <axis tag="V000" value="0.0"/>
          <axis tag="V001" value="0.0"/>
          <axis tag="V002" value="0.0"/>
          <axis tag="V003" value="0.32"/>
          <axis tag="V004" value="0.44"/>
        </location>
      </varComponent>
    </TTGlyph>
    <TTGlyph name="DC_0033_00" xMin="0" yMin="0" xMax="0" yMax="0">
      <varComponent glyphName="three_00" flags="0x6000">
        <location>
          <axis tag="V000" value="0.3"/>
          <axis tag="V001" value="0.47"/>
        </location>
      </varComponent>
    </TTGlyph>
    <TTGlyph name="DC_0034_00" xMin="0" yMin="0" xMax="0" yMax="0">
      <varComponent glyphName="four_00" flags="0x6008">
        <location>
          <axis tag="V000" value="0.36"/>
          <axis tag="V001" value="0.1"/>
          <axis tag="V002" value="0.418"/>
          <axis tag="V003" value="0.0"/>
          <axis tag="V004" value="0.15"/>
          <axis tag="V005" value="0.415"/>
          <axis tag="V006" value="0.5"/>
        </location>
      </varComponent>
    </TTGlyph>
    <TTGlyph name="DC_0035_00" xMin="0" yMin="0" xMax="0" yMax="0">
      <varComponent glyphName="five_00" flags="0x6008">
        <location>
          <axis tag="V000" value="0.3"/>
          <axis tag="V001" value="0.455"/>
        </location>
      </varComponent>
    </TTGlyph>
    <TTGlyph name="DC_0036_00" xMin="0" yMin="0" xMax="0" yMax="0">
      <varComponent glyphName="six_00" flags="0x6008">
        <location>
          <axis tag="V000" value="0.2"/>
          <axis tag="V001" value="0.33"/>
          <axis tag="V002" value="0.475"/>
        </location>
      </varComponent>
    </TTGlyph>
    <TTGlyph name="DC_0037_00" xMin="0" yMin="0" xMax="0" yMax="0">
      <varComponent glyphName="seven_00" flags="0x6000">
        <location>
          <axis tag="V000" value="0.08"/>
          <axis tag="V001" value="0.0"/>
          <axis tag="V002" value="0.48"/>
          <axis tag="V003" value="0.44"/>
        </location>
      </varComponent>
    </TTGlyph>
    <TTGlyph name="DC_0038_00" xMin="0" yMin="0" xMax="0" yMax="0">
      <varComponent glyphName="eight_00" flags="0x6000">
        <location>
          <axis tag="V000" value="0.32"/>
          <axis tag="V001" value="0.465"/>
        </location>
      </varComponent>
    </TTGlyph>
    <TTGlyph name="DC_0039_00" xMin="0" yMin="0" xMax="0" yMax="0">
      <varComponent glyphName="nine_00" flags="0x6000">
        <location>
          <axis tag="V000" value="0.2"/>
          <axis tag="V001" value="0.33"/>
          <axis tag="V002" value="0.475"/>
        </location>
      </varComponent>
    </TTGlyph>
    <TTGlyph name="eight_00" xMin="35" yMin="-12" xMax="307" yMax="612">
      <contour>
        <pt x="307" y="162" on="1"/>
        <pt x="307" y="271" on="0" cubic="1"/>
        <pt x="259" y="330" on="0" cubic="1"/>
        <pt x="171" y="330" on="1"/>
        <pt x="88" y="330" on="0" cubic="1"/>
        <pt x="35" y="264" on="0" cubic="1"/>
        <pt x="35" y="162" on="1"/>
        <pt x="35" y="52" on="0" cubic="1"/>
        <pt x="85" y="-12" on="0" cubic="1"/>
        <pt x="171" y="-12" on="1"/>
        <pt x="253" y="-12" on="0" cubic="1"/>
        <pt x="307" y="57" on="0" cubic="1"/>
      </contour>
      <contour>
        <pt x="277" y="161" on="1"/>
        <pt x="277" y="67" on="0" cubic="1"/>
        <pt x="238" y="13" on="0" cubic="1"/>
        <pt x="171" y="13" on="1"/>
        <pt x="104" y="13" on="0" cubic="1"/>
        <pt x="65" y="67" on="0" cubic="1"/>
        <pt x="65" y="161" on="1"/>
        <pt x="65" y="255" on="0" cubic="1"/>
        <pt x="104" y="309" on="0" cubic="1"/>
        <pt x="171" y="309" on="1"/>
        <pt x="238" y="309" on="0" cubic="1"/>
        <pt x="277" y="255" on="0" cubic="1"/>
      </contour>
      <contour>
        <pt x="292" y="460" on="1"/>
        <pt x="292" y="557" on="0" cubic="1"/>
        <pt x="248" y="612" on="0" cubic="1"/>
        <pt x="171" y="612" on="1"/>
        <pt x="100" y="612" on="0" cubic="1"/>
        <pt x="50" y="550" on="0" cubic="1"/>
        <pt x="50" y="460" on="1"/>
        <pt x="50" y="363" on="0" cubic="1"/>
        <pt x="94" y="309" on="0" cubic="1"/>
        <pt x="171" y="309" on="1"/>
        <pt x="243" y="309" on="0" cubic="1"/>
        <pt x="292" y="370" on="0" cubic="1"/>
      </contour>
      <contour>
        <pt x="262" y="459" on="1"/>
        <pt x="262" y="378" on="0" cubic="1"/>
        <pt x="228" y="330" on="0" cubic="1"/>
        <pt x="171" y="330" on="1"/>
        <pt x="114" y="330" on="0" cubic="1"/>
        <pt x="80" y="378" on="0" cubic="1"/>
        <pt x="80" y="459" on="1"/>
        <pt x="80" y="538" on="0" cubic="1"/>
        <pt x="115" y="587" on="0" cubic="1"/>
        <pt x="171" y="587" on="1"/>
        <pt x="227" y="587" on="0" cubic="1"/>
        <pt x="262" y="538" on="0" cubic="1"/>
      </contour>
    </TTGlyph>
    <TTGlyph name="five_00" xMin="20" yMin="-12" xMax="261" yMax="600">
      <contour>
        <pt x="53" y="343" on="1"/>
        <pt x="81" y="343" on="1"/>
        <pt x="81" y="600" on="1"/>
        <pt x="53" y="600" on="1"/>
      </contour>
      <contour>
        <pt x="243" y="575" on="1"/>
        <pt x="243" y="600" on="1"/>
        <pt x="53" y="600" on="1"/>
        <pt x="53" y="575" on="1"/>
      </contour>
      <contour>
        <pt x="20" y="28" on="1"/>
        <pt x="46" y="2" on="0" cubic="1"/>
        <pt x="81" y="-12" on="0" cubic="1"/>
        <pt x="120" y="-12" on="1"/>
        <pt x="208" y="-12" on="0" cubic="1"/>
        <pt x="261" y="59" on="0" cubic="1"/>
        <pt x="261" y="178" on="1"/>
        <pt x="261" y="299" on="0" cubic="1"/>
        <pt x="210" y="368" on="0" cubic="1"/>
        <pt x="120" y="368" on="1"/>
        <pt x="96" y="368" on="0" cubic="1"/>
        <pt x="75" y="362" on="0" cubic="1"/>
        <pt x="53" y="349" on="1"/>
        <pt x="53" y="333" on="1"/>
        <pt x="83" y="340" on="0" cubic="1"/>
        <pt x="99" y="343" on="0" cubic="1"/>
        <pt x="116" y="343" on="1"/>
        <pt x="191" y="343" on="0" cubic="1"/>
        <pt x="231" y="285" on="0" cubic="1"/>
        <pt x="231" y="178" on="1"/>
        <pt x="231" y="72" on="0" cubic="1"/>
        <pt x="192" y="13" on="0" cubic="1"/>
        <pt x="121" y="13" on="1"/>
        <pt x="90" y="13" on="0" cubic="1"/>
        <pt x="61" y="24" on="0" cubic="1"/>
        <pt x="39" y="45" on="1"/>
      </contour>
    </TTGlyph>
    <TTGlyph name="four_00" xMin="15" yMin="0" xMax="312" yMax="600">
      <contour>
        <pt x="212" y="0" on="1"/>
        <pt x="240" y="0" on="1"/>
        <pt x="240" y="600" on="1"/>
        <pt x="212" y="600" on="1"/>
      </contour>
      <contour>
        <pt x="15" y="145" on="1"/>
        <pt x="312" y="145" on="1"/>
        <pt x="312" y="170" on="1"/>
        <pt x="15" y="170" on="1"/>
      </contour>
      <contour>
        <pt x="44" y="170" on="1"/>
        <pt x="232" y="582" on="1"/>
        <pt x="232" y="600" on="1"/>
        <pt x="212" y="600" on="1"/>
        <pt x="15" y="170" on="1"/>
      </contour>
    </TTGlyph>
    <TTGlyph name="nine_00" xMin="35" yMin="-20" xMax="279" yMax="612">
      <contour>
        <pt x="279" y="414" on="1"/>
        <pt x="279" y="541" on="0" cubic="1"/>
        <pt x="240" y="612" on="0" cubic="1"/>
        <pt x="159" y="612" on="1"/>
        <pt x="79" y="612" on="0" cubic="1"/>
        <pt x="35" y="544" on="0" cubic="1"/>
        <pt x="35" y="421" on="1"/>
        <pt x="35" y="314" on="0" cubic="1"/>
        <pt x="74" y="252" on="0" cubic="1"/>
        <pt x="152" y="252" on="1"/>
        <pt x="199" y="252" on="0" cubic="1"/>
        <pt x="235" y="276" on="0" cubic="1"/>
        <pt x="244" y="317" on="1"/>
        <pt x="238" y="307" on="1"/>
        <pt x="214" y="208" on="0" cubic="1"/>
        <pt x="156" y="89" on="0" cubic="1"/>
        <pt x="75" y="-5" on="1"/>
        <pt x="96" y="-20" on="1"/>
        <pt x="213" y="116" on="0" cubic="1"/>
        <pt x="279" y="288" on="0" cubic="1"/>
      </contour>
      <contour>
        <pt x="249" y="426" on="1"/>
        <pt x="249" y="328" on="0" cubic="1"/>
        <pt x="219" y="277" on="0" cubic="1"/>
        <pt x="157" y="277" on="1"/>
        <pt x="95" y="277" on="0" cubic="1"/>
        <pt x="65" y="328" on="0" cubic="1"/>
        <pt x="65" y="426" on="1"/>
        <pt x="65" y="528" on="0" cubic="1"/>
        <pt x="97" y="587" on="0" cubic="1"/>
        <pt x="157" y="587" on="1"/>
        <pt x="217" y="587" on="0" cubic="1"/>
        <pt x="249" y="528" on="0" cubic="1"/>
      </contour>
    </TTGlyph>
    <TTGlyph name="one_00" xMin="30" yMin="0" xMax="134" yMax="600">
      <contour>
        <pt x="105" y="0" on="1"/>
        <pt x="134" y="0" on="1"/>
        <pt x="134" y="600" on="1"/>
        <pt x="110" y="600" on="1"/>
        <pt x="92" y="600" on="0" cubic="1"/>
        <pt x="74" y="598" on="0" cubic="1"/>
        <pt x="59" y="596" on="1"/>
        <pt x="30" y="592" on="1"/>
        <pt x="30" y="572" on="1"/>
        <pt x="105" y="572" on="1"/>
      </contour>
    </TTGlyph>
    <TTGlyph name="seven_00" xMin="30" yMin="0" xMax="282" yMax="600">
      <contour>
        <pt x="30" y="0" on="1"/>
        <pt x="58" y="0" on="1"/>
        <pt x="282" y="580" on="1"/>
        <pt x="254" y="580" on="1"/>
      </contour>
      <contour>
        <pt x="43" y="575" on="1"/>
        <pt x="272" y="575" on="1"/>
        <pt x="282" y="580" on="1"/>
        <pt x="282" y="600" on="1"/>
        <pt x="43" y="600" on="1"/>
      </contour>
    </TTGlyph>
    <TTGlyph name="six_00" xMin="35" yMin="-12" xMax="279" yMax="620">
      <contour>
        <pt x="35" y="196" on="1"/>
        <pt x="35" y="59" on="0" cubic="1"/>
        <pt x="74" y="-12" on="0" cubic="1"/>
        <pt x="155" y="-12" on="1"/>
        <pt x="235" y="-12" on="0" cubic="1"/>
        <pt x="279" y="56" on="0" cubic="1"/>
        <pt x="279" y="189" on="1"/>
        <pt x="279" y="306" on="0" cubic="1"/>
        <pt x="240" y="368" on="0" cubic="1"/>
        <pt x="162" y="368" on="1"/>
        <pt x="115" y="368" on="0" cubic="1"/>
        <pt x="82" y="344" on="0" cubic="1"/>
        <pt x="73" y="303" on="1"/>
        <pt x="79" y="313" on="1"/>
        <pt x="103" y="412" on="0" cubic="1"/>
        <pt x="158" y="511" on="0" cubic="1"/>
        <pt x="239" y="605" on="1"/>
        <pt x="218" y="620" on="1"/>
        <pt x="101" y="484" on="0" cubic="1"/>
        <pt x="35" y="332" on="0" cubic="1"/>
      </contour>
      <contour>
        <pt x="65" y="184" on="1"/>
        <pt x="65" y="292" on="0" cubic="1"/>
        <pt x="95" y="343" on="0" cubic="1"/>
        <pt x="157" y="343" on="1"/>
        <pt x="219" y="343" on="0" cubic="1"/>
        <pt x="249" y="292" on="0" cubic="1"/>
        <pt x="249" y="184" on="1"/>
        <pt x="249" y="72" on="0" cubic="1"/>
        <pt x="217" y="13" on="0" cubic="1"/>
        <pt x="157" y="13" on="1"/>
        <pt x="97" y="13" on="0" cubic="1"/>
        <pt x="65" y="72" on="0" cubic="1"/>
      </contour>
    </TTGlyph>
    <TTGlyph name="three_00" xMin="25" yMin="-12" xMax="268" yMax="612">
      <contour>
        <pt x="268" y="151" on="1"/>
        <pt x="268" y="250" on="0" cubic="1"/>
        <pt x="216" y="313" on="0" cubic="1"/>
        <pt x="134" y="313" on="1"/>
        <pt x="67" y="313" on="1"/>
        <pt x="67" y="293" on="1"/>
        <pt x="133" y="293" on="1"/>
        <pt x="197" y="293" on="0" cubic="1"/>
        <pt x="238" y="236" on="0" cubic="1"/>
        <pt x="238" y="147" on="1"/>
        <pt x="238" y="61" on="0" cubic="1"/>
        <pt x="198" y="12" on="0" cubic="1"/>
        <pt x="128" y="12" on="1"/>
        <pt x="95" y="12" on="0" cubic="1"/>
        <pt x="66" y="23" on="0" cubic="1"/>
        <pt x="44" y="44" on="1"/>
        <pt x="25" y="28" on="1"/>
        <pt x="52" y="1" on="0" cubic="1"/>
        <pt x="87" y="-12" on="0" cubic="1"/>
        <pt x="130" y="-12" on="1"/>
        <pt x="215" y="-12" on="0" cubic="1"/>
        <pt x="268" y="51" on="0" cubic="1"/>
      </contour>
      <contour>
        <pt x="250" y="459" on="1"/>
        <pt x="250" y="553" on="0" cubic="1"/>
        <pt x="202" y="612" on="0" cubic="1"/>
        <pt x="127" y="612" on="1"/>
        <pt x="90" y="612" on="0" cubic="1"/>
        <pt x="54" y="596" on="0" cubic="1"/>
        <pt x="28" y="568" on="1"/>
        <pt x="47" y="552" on="1"/>
        <pt x="65" y="573" on="0" cubic="1"/>
        <pt x="95" y="587" on="0" cubic="1"/>
        <pt x="124" y="587" on="1"/>
        <pt x="186" y="587" on="0" cubic="1"/>
        <pt x="220" y="542" on="0" cubic="1"/>
        <pt x="220" y="458" on="1"/>
        <pt x="220" y="379" on="0" cubic="1"/>
        <pt x="182" y="318" on="0" cubic="1"/>
        <pt x="134" y="318" on="1"/>
        <pt x="67" y="318" on="1"/>
        <pt x="67" y="303" on="1"/>
        <pt x="135" y="303" on="1"/>
        <pt x="203" y="303" on="0" cubic="1"/>
        <pt x="250" y="367" on="0" cubic="1"/>
      </contour>
    </TTGlyph>
    <TTGlyph name="two_00" xMin="25" yMin="0" xMax="290" yMax="612">
      <contour>
        <pt x="43" y="25" on="1"/>
        <pt x="33" y="20" on="1"/>
        <pt x="33" y="0" on="1"/>
        <pt x="290" y="0" on="1"/>
        <pt x="290" y="25" on="1"/>
      </contour>
      <contour>
        <pt x="25" y="559" on="1"/>
        <pt x="41" y="541" on="1"/>
        <pt x="75" y="576" on="0" cubic="1"/>
        <pt x="108" y="587" on="0" cubic="1"/>
        <pt x="143" y="587" on="1"/>
        <pt x="204" y="587" on="0" cubic="1"/>
        <pt x="245" y="543" on="0" cubic="1"/>
        <pt x="245" y="478" on="1"/>
        <pt x="245" y="413" on="0" cubic="1"/>
        <pt x="215" y="364" on="0" cubic="1"/>
        <pt x="175" y="288" on="1"/>
        <pt x="33" y="20" on="1"/>
        <pt x="65" y="20" on="1"/>
        <pt x="197" y="271" on="1"/>
        <pt x="250" y="372" on="0" cubic="1"/>
        <pt x="276" y="407" on="0" cubic="1"/>
        <pt x="276" y="478" on="1"/>
        <pt x="276" y="558" on="0" cubic="1"/>
        <pt x="223" y="612" on="0" cubic="1"/>
        <pt x="145" y="612" on="1"/>
        <pt x="105" y="612" on="0" cubic="1"/>
        <pt x="64" y="598" on="0" cubic="1"/>
      </contour>
    </TTGlyph>
    <TTGlyph name="uni0030" xMin="0" yMin="0" xMax="0" yMax="0">
      <varComponent glyphName="DC_0030_00" flags="0x6048" translateX="16.0">
        <location>
          <axis tag="V000" value="0.0"/>
        </location>
      </varComponent>
    </TTGlyph>
    <TTGlyph name="uni0030.inf" xMin="0" yMin="0" xMax="0" yMax="0">
      <varComponent glyphName="DC_0030_00" flags="0x60d8" translateX="27.0" translateY="-178.0" scaleX="0.6" scaleY="0.66">
        <location>
          <axis tag="V000" value="0.42"/>
          <axis tag="V001" value="0.3"/>
        </location>
      </varComponent>
    </TTGlyph>
    <TTGlyph name="uni0030.of" xMin="0" yMin="0" xMax="0" yMax="0">
      <varComponent glyphName="DC_0030_00" flags="0x60d8" translateX="36.0" translateY="-3.0" scaleX="0.76" scaleY="0.776">
        <location>
          <axis tag="V000" value="0.26"/>
          <axis tag="V001" value="0.3"/>
        </location>
      </varComponent>
    </TTGlyph>
    <TTGlyph name="uni0030.sc" xMin="0" yMin="0" xMax="0" yMax="0">
      <varComponent glyphName="DC_0030_00" flags="0x60d8" translateX="30.0" translateY="-3.0" scaleX="0.81" scaleY="0.842">
        <location>
          <axis tag="V000" value="0.215"/>
          <axis tag="V001" value="0.2"/>
        </location>
      </varComponent>
    </TTGlyph>
    <TTGlyph name="uni0030.sup" xMin="0" yMin="0" xMax="0" yMax="0">
      <varComponent glyphName="DC_0030_00" flags="0x60d8" translateX="27.0" translateY="362.0" scaleX="0.6" scaleY="0.66">
        <location>
          <axis tag="V000" value="0.42"/>
          <axis tag="V001" value="0.3"/>
        </location>
      </varComponent>
    </TTGlyph>
    <TTGlyph name="uni0030.tab" xMin="0" yMin="0" xMax="0" yMax="0">
      <varComponent glyphName="DC_0030_00" flags="0x6048" translateX="16.0">
        <location>
          <axis tag="V000" value="0.0"/>
        </location>
      </varComponent>
    </TTGlyph>
    <TTGlyph name="uni0031" xMin="0" yMin="0" xMax="0" yMax="0">
      <varComponent glyphName="DC_0031_00" flags="0x6048" translateX="-1.0">
        <location>
          <axis tag="V001" value="0.0"/>
        </location>
      </varComponent>
    </TTGlyph>
    <TTGlyph name="uni0031.inf" xMin="0" yMin="0" xMax="0" yMax="0">
      <varComponent glyphName="DC_0031_00" flags="0x60d8" translateX="32.0" translateY="-180.0" scaleX="0.65" scaleY="0.667">
        <location>
          <axis tag="V000" value="0.224"/>
          <axis tag="V001" value="0.349"/>
        </location>
      </varComponent>
    </TTGlyph>
    <TTGlyph name="uni0031.of" xMin="0" yMin="0" xMax="0" yMax="0">
      <varComponent glyphName="DC_0031_00" flags="0x60c8" translateX="22.0" scaleX="0.74" scaleY="0.767">
        <location>
          <axis tag="V000" value="0.244"/>
          <axis tag="V001" value="0.33"/>
        </location>
      </varComponent>
    </TTGlyph>
    <TTGlyph name="uni0031.sc" xMin="0" yMin="0" xMax="0" yMax="0">
      <varComponent glyphName="DC_0031_00" flags="0x60c8" translateX="31.0" scaleX="0.81" scaleY="0.834">
        <location>
          <axis tag="V000" value="0.22"/>
          <axis tag="V001" value="0.236"/>
        </location>
      </varComponent>
    </TTGlyph>
    <TTGlyph name="uni0031.sup" xMin="0" yMin="0" xMax="0" yMax="0">
      <varComponent glyphName="DC_0031_00" flags="0x60d8" translateX="32.0" translateY="360.0" scaleX="0.65" scaleY="0.667">
        <location>
          <axis tag="V000" value="0.224"/>
          <axis tag="V001" value="0.349"/>
        </location>
      </varComponent>
    </TTGlyph>
    <TTGlyph name="uni0031.tab" xMin="0" yMin="0" xMax="0" yMax="0">
      <varComponent glyphName="DC_0031_00" flags="0x6048" translateX="134.0">
        <location>
          <axis tag="V000" value="0.398"/>
          <axis tag="V001" value="0.0"/>
        </location>
      </varComponent>
    </TTGlyph>
    <TTGlyph name="uni0032" xMin="0" yMin="0" xMax="0" yMax="0">
      <varComponent glyphName="DC_0032_00" flags="0x6048" translateX="-10.0">
        <location>
          <axis tag="V003" value="0.0"/>
        </location>
      </varComponent>
    </TTGlyph>
    <TTGlyph name="uni0032.inf" xMin="0" yMin="0" xMax="0" yMax="0">
      <varComponent glyphName="DC_0032_00" flags="0x60d8" translateX="10.0" translateY="-180.0" scaleX="0.68" scaleY="0.663">
        <location>
          <axis tag="V001" value="0.035"/>
          <axis tag="V002" value="0.0"/>
          <axis tag="V003" value="0.292"/>
          <axis tag="V004" value="0.1"/>
        </location>
      </varComponent>
    </TTGlyph>
    <TTGlyph name="uni0032.of" xMin="0" yMin="0" xMax="0" yMax="0">
      <varComponent glyphName="DC_0032_00" flags="0x60c8" translateX="10.0" scaleX="0.77" scaleY="0.772">
        <location>
          <axis tag="V001" value="0.18"/>
          <axis tag="V003" value="0.292"/>
          <axis tag="V004" value="0.2"/>
        </location>
      </varComponent>
    </TTGlyph>
    <TTGlyph name="uni0032.sc" xMin="0" yMin="0" xMax="0" yMax="0">
      <varComponent glyphName="DC_0032_00" flags="0x60c8" translateX="23.0" scaleX="0.79" scaleY="0.837">
        <location>
          <axis tag="V001" value="0.0"/>
          <axis tag="V003" value="0.19"/>
          <axis tag="V004" value="0.2"/>
        </location>
      </varComponent>
    </TTGlyph>
    <TTGlyph name="uni0032.sup" xMin="0" yMin="0" xMax="0" yMax="0">
      <varComponent glyphName="DC_0032_00" flags="0x60d8" translateX="10.0" translateY="360.0" scaleX="0.68" scaleY="0.663">
        <location>
          <axis tag="V001" value="0.035"/>
          <axis tag="V002" value="0.0"/>
          <axis tag="V003" value="0.292"/>
          <axis tag="V004" value="0.1"/>
        </location>
      </varComponent>
    </TTGlyph>
    <TTGlyph name="uni0032.tab" xMin="0" yMin="0" xMax="0" yMax="0">
      <varComponent glyphName="DC_0032_00" flags="0x6048" translateX="40.0">
        <location>
          <axis tag="V003" value="0.0"/>
        </location>
      </varComponent>
    </TTGlyph>
    <TTGlyph name="uni0033" xMin="0" yMin="0" xMax="0" yMax="0">
      <varComponent glyphName="DC_0033_00" flags="0x6048" translateX="30.0">
        <location>
          <axis tag="V000" value="0.0"/>
        </location>
      </varComponent>
    </TTGlyph>
    <TTGlyph name="uni0033.inf" xMin="0" yMin="0" xMax="0" yMax="0">
      <varComponent glyphName="DC_0033_00" flags="0x60d8" translateX="11.0" translateY="-178.0" scaleX="0.67" scaleY="0.66">
        <location>
          <axis tag="V000" value="0.284"/>
        </location>
      </varComponent>
    </TTGlyph>
    <TTGlyph name="uni0033.of" xMin="0" yMin="0" xMax="0" yMax="0">
      <varComponent glyphName="DC_0033_00" flags="0x6058" translateX="30.0" translateY="-140.0">
        <location>
          <axis tag="V000" value="0.0"/>
        </location>
      </varComponent>
    </TTGlyph>
    <TTGlyph name="uni0033.sc" xMin="0" yMin="0" xMax="0" yMax="0">
      <varComponent glyphName="DC_0033_00" flags="0x60d8" translateX="30.0" translateY="-2.0" scaleX="0.8" scaleY="0.84">
        <location>
          <axis tag="V000" value="0.24"/>
          <axis tag="V001" value="0.1"/>
        </location>
      </varComponent>
    </TTGlyph>
    <TTGlyph name="uni0033.sup" xMin="0" yMin="0" xMax="0" yMax="0">
      <varComponent glyphName="DC_0033_00" flags="0x60d8" translateX="11.0" translateY="362.0" scaleX="0.67" scaleY="0.66">
        <location>
          <axis tag="V000" value="0.284"/>
        </location>
      </varComponent>
    </TTGlyph>
    <TTGlyph name="uni0033.tab" xMin="0" yMin="0" xMax="0" yMax="0">
      <varComponent glyphName="DC_0033_00" flags="0x6048" translateX="73.0">
        <location>
          <axis tag="V000" value="0.0"/>
        </location>
      </varComponent>
    </TTGlyph>
    <TTGlyph name="uni0034" xMin="0" yMin="0" xMax="0" yMax="0">
      <varComponent glyphName="DC_0034_00" flags="0x6048" translateX="5.0">
        <location>
          <axis tag="V000" value="0.0"/>
          <axis tag="V002" value="0.0"/>
          <axis tag="V003" value="0.0"/>
          <axis tag="V004" value="0.0"/>
          <axis tag="V005" value="0.0"/>
        </location>
      </varComponent>
    </TTGlyph>
    <TTGlyph name="uni0034.inf" xMin="0" yMin="0" xMax="0" yMax="0">
      <varComponent glyphName="DC_0034_00" flags="0x60d8" translateX="9.0" translateY="-180.0" scaleX="0.69" scaleY="0.668">
        <location>
          <axis tag="V001" value="0.1"/>
          <axis tag="V002" value="0.117"/>
          <axis tag="V003" value="0.17"/>
          <axis tag="V004" value="0.225"/>
          <axis tag="V005" value="0.18"/>
        </location>
      </varComponent>
    </TTGlyph>
    <TTGlyph name="uni0034.of" xMin="0" yMin="0" xMax="0" yMax="0">
      <varComponent glyphName="DC_0034_00" flags="0x6058" translateX="5.0" translateY="-140.0">
        <location>
          <axis tag="V000" value="0.0"/>
          <axis tag="V001" value="0.14"/>
          <axis tag="V002" value="0.03"/>
          <axis tag="V003" value="0.0"/>
          <axis tag="V004" value="0.0"/>
          <axis tag="V005" value="0.0"/>
        </location>
      </varComponent>
    </TTGlyph>
    <TTGlyph name="uni0034.sc" xMin="0" yMin="0" xMax="0" yMax="0">
      <varComponent glyphName="DC_0034_00" flags="0x60c8" translateX="10.0" scaleX="0.87" scaleY="0.834">
        <location>
          <axis tag="V002" value="0.045"/>
          <axis tag="V003" value="0.06"/>
          <axis tag="V004" value="0.12"/>
          <axis tag="V005" value="0.0"/>
          <axis tag="V006" value="0.0"/>
        </location>
      </varComponent>
    </TTGlyph>
    <TTGlyph name="uni0034.sup" xMin="0" yMin="0" xMax="0" yMax="0">
      <varComponent glyphName="DC_0034_00" flags="0x60d8" translateX="9.0" translateY="360.0" scaleX="0.69" scaleY="0.668">
        <location>
          <axis tag="V001" value="0.1"/>
          <axis tag="V002" value="0.117"/>
          <axis tag="V003" value="0.17"/>
          <axis tag="V004" value="0.225"/>
          <axis tag="V005" value="0.18"/>
        </location>
      </varComponent>
    </TTGlyph>
    <TTGlyph name="uni0034.tab" xMin="0" yMin="0" xMax="0" yMax="0">
      <varComponent glyphName="DC_0034_00" flags="0x6048" translateX="28.0">
        <location>
          <axis tag="V000" value="0.0"/>
          <axis tag="V002" value="0.0"/>
          <axis tag="V003" value="0.0"/>
          <axis tag="V004" value="0.0"/>
          <axis tag="V005" value="0.0"/>
        </location>
      </varComponent>
    </TTGlyph>
    <TTGlyph name="uni0035" xMin="0" yMin="0" xMax="0" yMax="0">
      <varComponent glyphName="DC_0035_00" flags="0x6048" translateX="30.0">
        <location>
          <axis tag="V000" value="0.0"/>
        </location>
      </varComponent>
    </TTGlyph>
    <TTGlyph name="uni0035.inf" xMin="0" yMin="0" xMax="0" yMax="0">
      <varComponent glyphName="DC_0035_00" flags="0x60d8" translateX="27.0" translateY="-178.0" scaleX="0.66" scaleY="0.664">
        <location>
          <axis tag="V000" value="0.33"/>
          <axis tag="V001" value="0.1"/>
        </location>
      </varComponent>
    </TTGlyph>
    <TTGlyph name="uni0035.of" xMin="0" yMin="0" xMax="0" yMax="0">
      <varComponent glyphName="DC_0035_00" flags="0x6058" translateX="30.0" translateY="-140.0">
        <location>
          <axis tag="V000" value="0.0"/>
        </location>
      </varComponent>
    </TTGlyph>
    <TTGlyph name="uni0035.sc" xMin="0" yMin="0" xMax="0" yMax="0">
      <varComponent glyphName="DC_0035_00" flags="0x60d8" translateX="25.0" translateY="-2.0" scaleX="0.835" scaleY="0.837">
        <location>
          <axis tag="V000" value="0.2"/>
          <axis tag="V001" value="0.03"/>
        </location>
      </varComponent>
    </TTGlyph>
    <TTGlyph name="uni0035.sup" xMin="0" yMin="0" xMax="0" yMax="0">
      <varComponent glyphName="DC_0035_00" flags="0x60d8" translateX="27.0" translateY="362.0" scaleX="0.66" scaleY="0.664">
        <location>
          <axis tag="V000" value="0.33"/>
          <axis tag="V001" value="0.1"/>
        </location>
      </varComponent>
    </TTGlyph>
    <TTGlyph name="uni0035.tab" xMin="0" yMin="0" xMax="0" yMax="0">
      <varComponent glyphName="DC_0035_00" flags="0x6048" translateX="73.0">
        <location>
          <axis tag="V000" value="0.0"/>
        </location>
      </varComponent>
    </TTGlyph>
    <TTGlyph name="uni0036" xMin="0" yMin="0" xMax="0" yMax="0">
      <varComponent glyphName="DC_0036_00" flags="0x6048" translateX="20.0">
        <location>
          <axis tag="V001" value="0.0"/>
          <axis tag="V002" value="0.0"/>
        </location>
      </varComponent>
    </TTGlyph>
    <TTGlyph name="uni0036.inf" xMin="0" yMin="0" xMax="0" yMax="0">
      <varComponent glyphName="DC_0036_00" flags="0x60d8" translateX="20.0" translateY="-178.0" scaleX="0.65" scaleY="0.662">
        <location>
          <axis tag="V000" value="0.0"/>
          <axis tag="V001" value="0.346"/>
          <axis tag="V002" value="0.1"/>
        </location>
      </varComponent>
    </TTGlyph>
    <TTGlyph name="uni0036.of" xMin="0" yMin="0" xMax="0" yMax="0">
      <varComponent glyphName="DC_0036_00" flags="0x6048" translateX="20.0">
        <location>
          <axis tag="V001" value="0.0"/>
          <axis tag="V002" value="0.0"/>
        </location>
      </varComponent>
    </TTGlyph>
    <TTGlyph name="uni0036.sc" xMin="0" yMin="0" xMax="0" yMax="0">
      <varComponent glyphName="DC_0036_00" flags="0x60d8" translateX="18.0" translateY="-2.0" scaleX="0.84" scaleY="0.837">
        <location>
          <axis tag="V001" value="0.204"/>
          <axis tag="V002" value="0.05"/>
        </location>
      </varComponent>
    </TTGlyph>
    <TTGlyph name="uni0036.sup" xMin="0" yMin="0" xMax="0" yMax="0">
      <varComponent glyphName="DC_0036_00" flags="0x60d8" translateX="20.0" translateY="362.0" scaleX="0.65" scaleY="0.662">
        <location>
          <axis tag="V000" value="0.0"/>
          <axis tag="V001" value="0.346"/>
          <axis tag="V002" value="0.1"/>
        </location>
      </varComponent>
    </TTGlyph>
    <TTGlyph name="uni0036.tab" xMin="0" yMin="0" xMax="0" yMax="0">
      <varComponent glyphName="DC_0036_00" flags="0x6048" translateX="45.0">
        <location>
          <axis tag="V001" value="0.0"/>
          <axis tag="V002" value="0.0"/>
        </location>
      </varComponent>
    </TTGlyph>
    <TTGlyph name="uni0037" xMin="0" yMin="0" xMax="0" yMax="0">
      <varComponent glyphName="DC_0037_00" flags="0x6048" translateX="-4.0">
        <location>
          <axis tag="V002" value="0.0"/>
        </location>
      </varComponent>
    </TTGlyph>
    <TTGlyph name="uni0037.inf" xMin="0" yMin="0" xMax="0" yMax="0">
      <varComponent glyphName="DC_0037_00" flags="0x60d8" translateX="1.0" translateY="-180.0" scaleX="0.67" scaleY="0.667">
        <location>
          <axis tag="V000" value="0.0"/>
          <axis tag="V002" value="0.284"/>
        </location>
      </varComponent>
    </TTGlyph>
    <TTGlyph name="uni0037.of" xMin="0" yMin="0" xMax="0" yMax="0">
      <varComponent glyphName="DC_0037_00" flags="0x6058" translateX="-4.0" translateY="-140.0">
        <location>
          <axis tag="V002" value="0.0"/>
        </location>
      </varComponent>
    </TTGlyph>
    <TTGlyph name="uni0037.sc" xMin="0" yMin="0" xMax="0" yMax="0">
      <varComponent glyphName="DC_0037_00" flags="0x60c0" scaleX="0.82" scaleY="0.834">
        <location>
          <axis tag="V002" value="0.18"/>
        </location>
      </varComponent>
    </TTGlyph>
    <TTGlyph name="uni0037.sup" xMin="0" yMin="0" xMax="0" yMax="0">
      <varComponent glyphName="DC_0037_00" flags="0x60d8" translateX="1.0" translateY="360.0" scaleX="0.67" scaleY="0.667">
        <location>
          <axis tag="V000" value="0.0"/>
          <axis tag="V002" value="0.284"/>
        </location>
      </varComponent>
    </TTGlyph>
    <TTGlyph name="uni0037.tab" xMin="0" yMin="0" xMax="0" yMax="0">
      <varComponent glyphName="DC_0037_00" flags="0x6048" translateX="31.0">
        <location>
          <axis tag="V002" value="0.0"/>
        </location>
      </varComponent>
    </TTGlyph>
    <TTGlyph name="uni0038" xMin="0" yMin="0" xMax="0" yMax="0">
      <varComponent glyphName="DC_0038_00" flags="0x6048" translateX="22.0">
        <location>
          <axis tag="V000" value="0.0"/>
        </location>
      </varComponent>
    </TTGlyph>
    <TTGlyph name="uni0038.inf" xMin="0" yMin="0" xMax="0" yMax="0">
      <varComponent glyphName="DC_0038_00" flags="0x60d8" translateX="29.0" translateY="-178.0" scaleX="0.6" scaleY="0.66">
        <location>
          <axis tag="V000" value="0.43"/>
          <axis tag="V001" value="0.225"/>
        </location>
      </varComponent>
    </TTGlyph>
    <TTGlyph name="uni0038.of" xMin="0" yMin="0" xMax="0" yMax="0">
      <varComponent glyphName="DC_0038_00" flags="0x6048" translateX="22.0">
        <location>
          <axis tag="V000" value="0.0"/>
        </location>
      </varComponent>
    </TTGlyph>
    <TTGlyph name="uni0038.sc" xMin="0" yMin="0" xMax="0" yMax="0">
      <varComponent glyphName="DC_0038_00" flags="0x60d8" translateX="21.0" translateY="-2.0" scaleX="0.82" scaleY="0.84">
        <location>
          <axis tag="V000" value="0.13"/>
          <axis tag="V001" value="0.03"/>
        </location>
      </varComponent>
    </TTGlyph>
    <TTGlyph name="uni0038.sup" xMin="0" yMin="0" xMax="0" yMax="0">
      <varComponent glyphName="DC_0038_00" flags="0x60d8" translateX="29.0" translateY="362.0" scaleX="0.6" scaleY="0.66">
        <location>
          <axis tag="V000" value="0.43"/>
          <axis tag="V001" value="0.225"/>
        </location>
      </varComponent>
    </TTGlyph>
    <TTGlyph name="uni0038.tab" xMin="0" yMin="0" xMax="0" yMax="0">
      <varComponent glyphName="DC_0038_00" flags="0x6048" translateX="45.0">
        <location>
          <axis tag="V000" value="0.0"/>
        </location>
      </varComponent>
    </TTGlyph>
    <TTGlyph name="uni0039" xMin="0" yMin="0" xMax="0" yMax="0">
      <varComponent glyphName="DC_0039_00" flags="0x6048" translateX="19.0">
        <location>
          <axis tag="V001" value="0.0"/>
        </location>
      </varComponent>
    </TTGlyph>
    <TTGlyph name="uni0039.inf" xMin="0" yMin="0" xMax="0" yMax="0">
      <varComponent glyphName="DC_0039_00" flags="0x60d8" translateX="19.0" translateY="-179.0" scaleX="0.65" scaleY="0.662">
        <location>
          <axis tag="V000" value="0.0"/>
          <axis tag="V001" value="0.35"/>
          <axis tag="V002" value="0.1"/>
        </location>
      </varComponent>
    </TTGlyph>
    <TTGlyph name="uni0039.of" xMin="0" yMin="0" xMax="0" yMax="0">
      <varComponent glyphName="DC_0039_00" flags="0x6058" translateX="19.0" translateY="-140.0">
        <location>
          <axis tag="V001" value="0.0"/>
        </location>
      </varComponent>
    </TTGlyph>
    <TTGlyph name="uni0039.sc" xMin="0" yMin="0" xMax="0" yMax="0">
      <varComponent glyphName="DC_0039_00" flags="0x60c8" translateX="15.0" scaleX="0.84" scaleY="0.837">
        <location>
          <axis tag="V001" value="0.204"/>
          <axis tag="V002" value="0.05"/>
        </location>
      </varComponent>
    </TTGlyph>
    <TTGlyph name="uni0039.sup" xMin="0" yMin="0" xMax="0" yMax="0">
      <varComponent glyphName="DC_0039_00" flags="0x60d8" translateX="19.0" translateY="361.0" scaleX="0.65" scaleY="0.662">
        <location>
          <axis tag="V000" value="0.0"/>
          <axis tag="V001" value="0.35"/>
          <axis tag="V002" value="0.1"/>
        </location>
      </varComponent>
    </TTGlyph>
    <TTGlyph name="uni0039.tab" xMin="0" yMin="0" xMax="0" yMax="0">
      <varComponent glyphName="DC_0039_00" flags="0x6048" translateX="44.0">
        <location>
          <axis tag="V001" value="0.0"/>
        </location>
      </varComponent>
    </TTGlyph>
    <TTGlyph name="zero_00" xMin="35" yMin="-12" xMax="327" yMax="612">
      <contour>
        <pt x="327" y="301" on="1"/>
        <pt x="327" y="512" on="0" cubic="1"/>
        <pt x="280" y="612" on="0" cubic="1"/>
        <pt x="181" y="612" on="1"/>
        <pt x="84" y="612" on="0" cubic="1"/>
        <pt x="35" y="508" on="0" cubic="1"/>
        <pt x="35" y="301" on="1"/>
        <pt x="35" y="84" on="0" cubic="1"/>
        <pt x="80" y="-12" on="0" cubic="1"/>
        <pt x="181" y="-12" on="1"/>
        <pt x="278" y="-12" on="0" cubic="1"/>
        <pt x="327" y="93" on="0" cubic="1"/>
      </contour>
      <contour>
        <pt x="297" y="300" on="1"/>
        <pt x="297" y="107" on="0" cubic="1"/>
        <pt x="259" y="13" on="0" cubic="1"/>
        <pt x="181" y="13" on="1"/>
        <pt x="103" y="13" on="0" cubic="1"/>
        <pt x="65" y="107" on="0" cubic="1"/>
        <pt x="65" y="300" on="1"/>
        <pt x="65" y="493" on="0" cubic="1"/>
        <pt x="103" y="587" on="0" cubic="1"/>
        <pt x="181" y="587" on="1"/>
        <pt x="259" y="587" on="0" cubic="1"/>
        <pt x="297" y="493" on="0" cubic="1"/>
      </contour>
    </TTGlyph>
</ttFont>
